<?xml version="1.0" standalone="no"?>
<!DOCTYPE svg PUBLIC "-//W3C//DTD SVG 20010904//EN"
 "http://www.w3.org/TR/2001/REC-SVG-20010904/DTD/svg10.dtd">
<svg version="1.0" xmlns="http://www.w3.org/2000/svg"
 width="16.000000pt" height="16.000000pt" viewBox="0 0 16.000000 16.000000"
 preserveAspectRatio="xMidYMid meet">
<metadata>
Created by potrace 1.11, written by Peter Selinger 2001-2013
</metadata>
<g transform="translate(0.000000,16.000000) scale(0.002667,-0.002667)"
fill="#000000" stroke="none">
<path d="M229 5976 c-80 -17 -116 -35 -158 -77 -66 -65 -63 -36 -52 -606 5
-283 13 -518 16 -522 4 -3 856 -14 1893 -23 2080 -18 1947 -13 2234 -84 595
-146 965 -352 1389 -774 162 -161 270 -282 361 -403 l36 -48 6 28 c30 144 39
241 43 464 6 268 -4 371 -53 559 -32 124 -115 292 -201 405 -97 129 -311 345
-430 434 -496 372 -1003 544 -1873 637 -210 22 -3110 31 -3211 10z"/>
<path d="M5235 3753 c-93 -56 -411 -208 -550 -262 -617 -242 -1096 -305 -2115
-280 -250 6 -601 9 -780 7 -306 -4 -329 -5 -393 -27 -53 -17 -81 -34 -122 -74
l-53 -52 -6 -455 c-11 -884 -17 -2615 -9 -2607 4 5 328 443 718 975 l710 967
295 -3 c380 -5 623 16 1040 88 384 67 706 173 1039 341 336 171 538 342 720
611 l52 76 -246 354 c-136 194 -250 356 -253 359 -4 3 -25 -5 -47 -18z"/>
</g>
</svg>
